<svg viewBox="0 0 300 308" xmlns="http://www.w3.org/2000/svg">
  <path d="M126.575 1.40058C143.159 -1.0752 161.475 -0.167757 177.834 3.32636C179.042 3.57894 180.252 3.80699 181.465 4.03339C205.586 8.73039 228.307 20.7311 246.899 36.6144C247.342 36.99 247.786 37.3652 248.242 37.7521C251.899 40.9483 255.325 44.377 258.765 47.8029C259.255 48.2905 259.746 48.7781 260.251 49.2805C261.62 50.6534 262.972 52.0425 264.321 53.4348C264.714 53.8177 265.107 54.2004 265.512 54.5949C265.853 54.9474 266.194 55.3001 266.546 55.6633C266.844 55.9609 267.142 56.259 267.449 56.5656C267.925 57.6395 267.925 57.6399 267.546 59.2668C266.599 61.5447 265.603 63.7895 264.558 66.0236C264.344 66.4844 264.13 66.9454 263.91 67.4201C263.45 68.4115 262.99 69.4031 262.528 70.3937C261.293 73.0449 260.064 75.6989 258.835 78.3527C258.586 78.8898 258.337 79.4273 258.08 79.9807C255.818 84.8626 253.588 89.7585 251.368 94.6594C248.21 101.627 245.028 108.584 241.831 115.534C238.505 122.764 235.188 129.998 231.882 137.237C228.576 144.475 225.257 151.708 221.932 158.938C218.723 165.913 215.53 172.896 212.357 179.888C209.185 186.88 205.993 193.863 202.784 200.838C199.447 208.093 196.116 215.351 192.797 222.614C192.601 223.044 192.404 223.474 192.202 223.916C190.398 227.865 188.594 231.814 186.791 235.763C185.751 238.04 184.711 240.316 183.671 242.593C183.107 243.828 182.542 245.064 181.979 246.299C178.411 254.109 174.806 261.901 171.208 269.697C188.455 269.896 205.702 270.094 223.472 270.298C223.868 269.109 224.264 267.919 224.673 266.694C224.987 265.939 225.314 265.189 225.659 264.448C225.847 264.043 226.034 263.637 226.228 263.219C226.429 262.788 226.631 262.357 226.839 261.913C227.053 261.453 227.266 260.991 227.486 260.517C227.946 259.525 228.408 258.535 228.869 257.544C230.104 254.893 231.333 252.238 232.562 249.584C232.811 249.047 233.06 248.51 233.316 247.956C235.578 243.074 237.809 238.178 240.029 233.278C243.188 226.31 246.368 219.353 249.565 212.403C252.903 205.147 256.234 197.89 259.553 190.626C259.75 190.194 259.947 189.762 260.15 189.318C261.541 186.275 262.931 183.232 264.321 180.189C265.91 176.709 267.499 173.229 269.089 169.75C269.286 169.319 269.483 168.888 269.687 168.444C272.593 162.084 275.51 155.729 278.432 149.376C282.028 141.557 285.613 133.732 289.176 125.898C289.462 125.27 289.462 125.269 289.754 124.628C290.292 123.445 290.831 122.261 291.368 121.077C291.671 120.41 291.974 119.743 292.286 119.056C293.199 117.015 294.082 114.964 294.958 112.906C296.159 113.507 296.16 113.507 296.562 114.694C296.736 115.462 296.736 115.462 296.913 116.246C297.042 116.813 297.171 117.381 297.304 117.965C297.434 118.563 297.565 119.161 297.699 119.778C297.832 120.355 297.965 120.932 298.102 121.527C299.598 128.233 299.873 134.776 299.907 141.636C299.91 142.057 299.912 142.478 299.914 142.912C299.927 145.148 299.936 147.385 299.941 149.621C299.947 151.438 299.959 153.255 299.979 155.071C300.09 165.865 299.854 176.224 297.361 186.796C297.192 187.525 297.022 188.253 296.847 189.004C296.412 190.714 295.93 192.395 295.408 194.08C295.14 194.967 295.141 194.967 294.867 195.871C288.1 217.799 277.068 236.901 261.918 254.078C261.637 254.397 261.355 254.716 261.065 255.045C258.109 258.381 255.125 261.617 251.698 264.481C250.863 265.188 250.05 265.921 249.254 266.672C238.832 276.49 226.169 284.06 213.259 290.121C212.844 290.32 212.43 290.519 212.003 290.724C204.625 294.249 197.07 296.834 189.229 299.133C188.801 299.26 188.373 299.387 187.932 299.518C163.976 306.542 137.154 306.602 112.938 300.935C112.226 300.769 112.225 300.769 111.5 300.6C87.9208 294.98 66.0095 284.197 47.8008 268.124C47.122 267.527 46.4387 266.934 45.7529 266.345C28.3758 251.356 28.3755 251.357 24.0293 242.664C25.1523 242.347 25.1524 242.347 26.2979 242.024C39.6428 238.187 51.2698 233.212 61.875 224.041C62.3519 223.644 62.829 223.247 63.3203 222.838C67.7319 219.048 71.3927 214.692 75.0908 210.225C76.8246 211.724 77.5939 213.339 78.5449 215.406C80.2272 218.867 82.2367 221.708 84.7031 224.642C85.0756 225.134 85.4483 225.628 85.832 226.135C94.9568 236.957 111.18 241.552 124.637 243.145C141.555 244.489 160.553 243.925 175.413 234.855H176.614C175.13 228.17 173.635 221.5 171.827 214.895C171.099 212.23 170.403 209.556 169.706 206.883C168.621 202.723 167.463 198.594 166.222 194.477C165.802 192.804 165.802 192.803 165.802 190.401C165.235 190.617 164.668 190.834 164.084 191.058C157.867 193.343 151.856 194.776 145.4 192.311C142.113 190.409 139.946 187.349 138.769 183.792C138.615 181.839 138.615 181.839 138.609 179.58C138.605 178.955 138.606 178.955 138.602 178.317C138.594 176.923 138.595 175.529 138.596 174.136C138.592 173.135 138.589 172.135 138.584 171.134C138.575 168.98 138.57 166.825 138.567 164.671C138.563 161.26 138.55 157.848 138.535 154.437C138.506 147.189 138.486 139.941 138.468 132.694C138.448 124.883 138.427 117.071 138.394 109.26C138.38 105.875 138.371 102.489 138.367 99.1037C138.364 96.9886 138.355 94.8731 138.346 92.758C138.342 91.7837 138.34 90.8094 138.341 89.8351C138.35 73.3073 133.358 58.6298 123.149 45.6252C122.613 44.933 122.613 44.9327 122.065 44.2267C111.399 31.264 94.0513 24.1477 78.1025 20.5998C77.09 20.3662 76.0885 20.0838 75.0908 19.7932L74.4902 18.592C90.0911 10.2684 106.835 4.3953 124.351 1.77167C125.085 1.64933 125.819 1.52662 126.575 1.40058ZM71.4873 134.533C71.627 139.766 71.7328 144.998 71.7979 150.232C71.8291 152.662 71.8721 155.092 71.9404 157.522C72.0061 159.871 72.0411 162.219 72.0566 164.569C72.0677 165.461 72.0895 166.354 72.1221 167.246C72.3665 174.216 72.3661 174.216 70.1797 177.115C68.6751 178.485 67.1652 179.654 65.4795 180.789C64.8122 181.309 64.1457 181.829 63.4805 182.352C50.9371 191.038 36.9785 196.148 21.5498 193.812C15.9226 192.681 10.9136 190.071 7.54688 185.369C4.39624 180.115 4.08433 174.287 5.08496 168.308C6.82855 161.612 11.8332 156.57 17.6748 153.092C28.0035 147.243 39.4033 144.728 50.8955 142.174C56.4939 140.919 66.7334 134.533 71.4873 134.533ZM19.7207 73.7424C33.5834 70.2255 49.9649 67.705 62.4756 76.2629C66.2944 79.4874 69.1333 82.699 69.8701 87.7443C70.019 90.285 69.8671 92.0846 68.333 94.1721C63.7265 98.6292 56.1126 99.1227 50.0303 100.193C34.1263 103.004 18.2781 106.27 2.94141 111.396C1.80213 111.705 1.80219 111.705 0 111.705C0.708671 107.553 1.77412 103.726 3.30371 99.8039C3.51071 99.2675 3.71837 98.7306 3.93164 98.1779C5.51931 94.1463 7.26918 90.2027 9.12402 86.2873C9.48752 85.5193 9.48751 85.5192 9.8584 84.7355C13.9055 76.3809 13.9055 76.3802 16.4609 74.7307C16.9635 74.5797 17.4666 74.4282 17.9844 74.2726C18.5574 74.0977 19.1304 73.9227 19.7207 73.7424Z" fill="#000000"/>
</svg>
